# xmcd CD database file
#
# Track frame offsets:
#	150
#	13589
#	32641
#	44516
#	58143
#	70514
#	83657
#	98718
#	109690
#	135446
#	147793
#	159586
#	174345
#	189788
#	204396
#	219351
#	236140
#	252314
#
# Disc length: 3649 seconds
#
# Revision: 2
# Processed by: cddbd v1.5.2PL0 Copyright (c) Steve Scherf et al.
# Submitted via: CDex 2.23
#
DISCID=ea0e3f12
DTITLE=Cesar Menotti e Fabia no - Palavras de Amor
DYEAR=1900
DGENRE=Country
TTITLE0=1
TTITLE1=2
TTITLE2=3
TTITLE3=4
TTITLE4=5
TTITLE5=6
TTITLE6=7
TTITLE7=8
TTITLE8=9
TTITLE9=10
TTITLE10=11
TTITLE11=12
TTITLE12=13
TTITLE13=14
TTITLE14=15
TTITLE15=16
TTITLE16=17
TTITLE17=18
EXTD=
EXTT0=
EXTT1=
EXTT2=
EXTT3=
EXTT4=
EXTT5=
EXTT6=
EXTT7=
EXTT8=
EXTT9=
EXTT10=
EXTT11=
EXTT12=
EXTT13=
EXTT14=
EXTT15=
EXTT16=
EXTT17=
PLAYORDER=
